<svg width="256" height="288" viewBox="0 0 256 288" fill="none" xmlns="http://www.w3.org/2000/svg">
<path opacity="0.25" d="M127.61 288C125.011 288 122.55 286.988 120.709 285.148L2.8639 167.325C-0.954632 163.507 -0.954632 157.319 2.8639 153.5L120.686 35.6781C122.527 33.8378 124.988 32.8257 127.587 32.8257C130.187 32.8257 132.648 33.8378 134.488 35.6781L252.311 153.5C256.129 157.319 256.129 163.507 252.311 167.325L134.488 285.148C132.648 286.988 130.187 288 127.587 288H127.61ZM127.61 36.2992C125.931 36.2992 124.344 36.9433 123.171 38.1394L5.32524 155.962C2.8639 158.423 2.8639 162.403 5.32524 164.864L123.148 282.686C124.344 283.883 125.908 284.527 127.61 284.527C129.312 284.527 130.877 283.883 132.073 282.686L249.895 164.864C252.357 162.403 252.357 158.423 249.895 155.962L132.05 38.1394C130.854 36.9433 129.289 36.2992 127.587 36.2992H127.61Z" fill="#7CDA24"/>
<path opacity="0.5" d="M127.61 271.806C125.011 271.806 122.55 270.794 120.709 268.953L2.8639 151.108C-0.954632 147.289 -0.954632 141.102 2.8639 137.283L120.686 19.4837C122.527 17.6435 124.988 16.6313 127.587 16.6313C130.187 16.6313 132.648 17.6435 134.488 19.4837L252.311 137.306C256.129 141.125 256.129 147.312 252.311 151.131L134.488 268.953C132.648 270.794 130.187 271.806 127.587 271.806H127.61ZM127.61 20.1048C125.931 20.1048 124.344 20.7489 123.171 21.9451L5.32524 139.744C2.8639 142.206 2.8639 146.185 5.32524 148.647L123.148 266.469C124.344 267.665 125.908 268.309 127.61 268.309C129.312 268.309 130.877 267.665 132.073 266.469L249.895 148.647C252.357 146.185 252.357 142.206 249.895 139.744L132.05 21.9221C130.854 20.7259 129.289 20.0818 127.587 20.0818L127.61 20.1048Z" fill="#7CDA24"/>
<path d="M127.61 255.197C125.011 255.197 122.55 254.185 120.709 252.345L2.8639 134.5C-0.954632 130.681 -0.954632 124.493 2.8639 120.675L120.686 2.8524C122.527 1.01214 124.988 0 127.587 0C130.187 0 132.648 1.01214 134.488 2.8524L252.311 120.675C256.129 124.493 256.129 130.681 252.311 134.5L134.488 252.322C132.648 254.162 130.187 255.174 127.587 255.174L127.61 255.197ZM127.61 3.47348C125.931 3.47348 124.344 4.11757 123.171 5.31374L5.32524 123.136C2.8639 125.597 2.8639 129.577 5.32524 132.038L123.148 249.861C124.344 251.057 125.908 251.701 127.61 251.701C129.312 251.701 130.877 251.057 132.073 249.861L249.895 132.038C252.357 129.577 252.357 125.597 249.895 123.136L132.05 5.31374C130.854 4.11757 129.289 3.47348 127.587 3.47348H127.61Z" fill="#7CDA24"/>
<path d="M86.1811 135.719H74.6105C74.3114 135.719 74.0814 135.949 74.0814 136.248V143.149C74.0814 143.448 74.3114 143.678 74.6105 143.678H88.4814C88.7804 143.678 89.0105 143.908 89.0105 144.207V149.314C89.0105 149.613 88.7804 149.843 88.4814 149.843H66.5593C66.2603 149.843 66.0303 149.613 66.0303 149.314V117.018C66.0303 116.719 66.2603 116.489 66.5593 116.489H88.5274C88.8264 116.489 89.0565 116.719 89.0565 117.018V122.147C89.0565 122.446 88.8264 122.676 88.5274 122.676H74.6105C74.3114 122.676 74.0814 122.906 74.0814 123.205V129.163C74.0814 129.462 74.3114 129.692 74.6105 129.692H86.1811C86.4801 129.692 86.7101 129.922 86.7101 130.221V135.098C86.7101 135.397 86.4801 135.627 86.1811 135.627V135.719Z" fill="#1E1E1E"/>
<path d="M103.133 137.996L100.465 140.918C100.465 140.918 100.327 141.148 100.327 141.286V149.337C100.327 149.636 100.097 149.866 99.7979 149.866H92.8279C92.5289 149.866 92.2988 149.636 92.2988 149.337V117.04C92.2988 116.741 92.5289 116.511 92.8279 116.511H99.7979C100.097 116.511 100.327 116.741 100.327 117.04V129.439C100.327 129.968 101.017 130.175 101.316 129.738L103.133 127.001L110.172 116.764C110.264 116.626 110.448 116.534 110.609 116.534H119.19C119.627 116.534 119.88 117.04 119.627 117.408L109.229 131.026C109.091 131.21 109.091 131.44 109.206 131.624L119.811 149.107C120.018 149.475 119.765 149.912 119.351 149.912H111.069C110.885 149.912 110.701 149.82 110.609 149.636L104.03 138.111C103.846 137.789 103.409 137.743 103.156 138.019L103.133 137.996Z" fill="#1E1E1E"/>
<path d="M130.371 149.889H123.424C123.125 149.889 122.895 149.659 122.895 149.36V117.063C122.895 116.764 123.125 116.534 123.424 116.534H130.371C130.67 116.534 130.9 116.764 130.9 117.063V149.36C130.9 149.659 130.67 149.889 130.371 149.889Z" fill="#1E1E1E"/>
<path d="M161.493 122.722H152.545C152.246 122.722 152.016 122.952 152.016 123.251V149.337C152.016 149.636 151.785 149.866 151.486 149.866H144.516C144.217 149.866 143.987 149.636 143.987 149.337V123.251C143.987 122.952 143.757 122.722 143.458 122.722H134.694C134.395 122.722 134.165 122.492 134.165 122.193V117.063C134.165 116.764 134.395 116.534 134.694 116.534H161.516C161.815 116.534 162.045 116.764 162.045 117.063V122.193C162.045 122.492 161.815 122.722 161.516 122.722H161.493Z" fill="#1E1E1E"/>
<path d="M168.302 129.761H179.873C180.172 129.761 180.402 129.531 180.402 129.232V123.275C180.402 122.976 180.172 122.745 179.873 122.745H165.956C165.657 122.745 165.427 122.515 165.427 122.216V117.087C165.427 116.788 165.657 116.558 165.956 116.558H187.924C188.223 116.558 188.453 116.788 188.453 117.087V149.383C188.453 149.682 188.223 149.912 187.924 149.912H166.002C165.703 149.912 165.473 149.682 165.473 149.383V144.276C165.473 143.977 165.703 143.747 166.002 143.747H179.873C180.172 143.747 180.402 143.517 180.402 143.218V136.317C180.402 136.018 180.172 135.788 179.873 135.788H168.302C168.003 135.788 167.773 135.558 167.773 135.259V130.383C167.773 130.083 168.003 129.853 168.302 129.853V129.761Z" fill="#1E1E1E"/>
</svg>
